<mxfile host="app.diagrams.net" agent="Mozilla/5.0 (X11; Linux x86_64) AppleWebKit/537.36 (KHTML, like Gecko) Chrome/128.0.0.0 Safari/537.36" version="24.7.16">
  <diagram name="Page-1" id="b520641d-4fe3-3701-9064-5fc419738815">
    <mxGraphModel dx="857" dy="637" grid="0" gridSize="10" guides="1" tooltips="1" connect="1" arrows="1" fold="1" page="1" pageScale="1" pageWidth="1100" pageHeight="850" background="none" math="0" shadow="0">
      <root>
        <mxCell id="0" />
        <mxCell id="1" parent="0" />
        <mxCell id="XSy8z6XwA7m9_Gt11HAB-55" value="" style="endArrow=classic;html=1;rounded=0;exitX=1;exitY=0.5;exitDx=0;exitDy=0;entryX=0;entryY=0.5;entryDx=0;entryDy=0;" edge="1" parent="1" source="XSy8z6XwA7m9_Gt11HAB-50" target="XSy8z6XwA7m9_Gt11HAB-22">
          <mxGeometry width="50" height="50" relative="1" as="geometry">
            <mxPoint x="855" y="524" as="sourcePoint" />
            <mxPoint x="690" y="280" as="targetPoint" />
          </mxGeometry>
        </mxCell>
        <mxCell id="XSy8z6XwA7m9_Gt11HAB-1" value="" style="rounded=0;whiteSpace=wrap;html=1;" vertex="1" parent="1">
          <mxGeometry x="12.5" y="130" width="150" height="40" as="geometry" />
        </mxCell>
        <mxCell id="XSy8z6XwA7m9_Gt11HAB-2" value="" style="endArrow=none;html=1;rounded=0;exitX=0.168;exitY=0.002;exitDx=0;exitDy=0;exitPerimeter=0;entryX=0.166;entryY=0.992;entryDx=0;entryDy=0;entryPerimeter=0;" edge="1" parent="1" source="XSy8z6XwA7m9_Gt11HAB-1" target="XSy8z6XwA7m9_Gt11HAB-1">
          <mxGeometry width="50" height="50" relative="1" as="geometry">
            <mxPoint x="62" y="240" as="sourcePoint" />
            <mxPoint x="62" y="310" as="targetPoint" />
          </mxGeometry>
        </mxCell>
        <mxCell id="XSy8z6XwA7m9_Gt11HAB-4" value="" style="rounded=1;whiteSpace=wrap;html=1;" vertex="1" parent="1">
          <mxGeometry x="12.5" y="200" width="170" height="100" as="geometry" />
        </mxCell>
        <mxCell id="XSy8z6XwA7m9_Gt11HAB-5" value="" style="rounded=0;whiteSpace=wrap;html=1;" vertex="1" parent="1">
          <mxGeometry x="20" y="40" width="135" height="70" as="geometry" />
        </mxCell>
        <mxCell id="XSy8z6XwA7m9_Gt11HAB-6" value="" style="endArrow=none;html=1;rounded=0;entryX=0;entryY=0.25;entryDx=0;entryDy=0;exitX=1;exitY=0.25;exitDx=0;exitDy=0;" edge="1" parent="1" source="XSy8z6XwA7m9_Gt11HAB-4" target="XSy8z6XwA7m9_Gt11HAB-4">
          <mxGeometry width="50" height="50" relative="1" as="geometry">
            <mxPoint x="370" y="440" as="sourcePoint" />
            <mxPoint x="420" y="390" as="targetPoint" />
          </mxGeometry>
        </mxCell>
        <mxCell id="XSy8z6XwA7m9_Gt11HAB-7" value="&lt;u&gt;User&lt;/u&gt;" style="rounded=0;whiteSpace=wrap;html=1;" vertex="1" parent="1">
          <mxGeometry x="280" y="190.5" width="110" height="70" as="geometry" />
        </mxCell>
        <mxCell id="XSy8z6XwA7m9_Gt11HAB-11" value="&lt;div&gt;&lt;br&gt;&lt;/div&gt;compute possible&amp;nbsp;&lt;div&gt;moves&lt;/div&gt;" style="rounded=1;whiteSpace=wrap;html=1;" vertex="1" parent="1">
          <mxGeometry x="500" y="181" width="140" height="90" as="geometry" />
        </mxCell>
        <mxCell id="XSy8z6XwA7m9_Gt11HAB-12" value="" style="endArrow=none;html=1;rounded=0;entryX=0;entryY=0.25;entryDx=0;entryDy=0;exitX=1;exitY=0.25;exitDx=0;exitDy=0;" edge="1" parent="1" source="XSy8z6XwA7m9_Gt11HAB-11" target="XSy8z6XwA7m9_Gt11HAB-11">
          <mxGeometry width="50" height="50" relative="1" as="geometry">
            <mxPoint x="730" y="171" as="sourcePoint" />
            <mxPoint x="780" y="121" as="targetPoint" />
          </mxGeometry>
        </mxCell>
        <mxCell id="XSy8z6XwA7m9_Gt11HAB-13" value="&lt;font style=&quot;font-size: 14px;&quot;&gt;1&lt;/font&gt;" style="text;strokeColor=none;fillColor=none;html=1;fontSize=24;fontStyle=1;verticalAlign=middle;align=center;" vertex="1" parent="1">
          <mxGeometry x="535" y="180" width="70" height="20" as="geometry" />
        </mxCell>
        <mxCell id="XSy8z6XwA7m9_Gt11HAB-14" value="" style="endArrow=classic;html=1;rounded=0;exitX=1;exitY=0.5;exitDx=0;exitDy=0;entryX=0;entryY=0.5;entryDx=0;entryDy=0;" edge="1" parent="1">
          <mxGeometry width="50" height="50" relative="1" as="geometry">
            <mxPoint x="390" y="223.5" as="sourcePoint" />
            <mxPoint x="500" y="224" as="targetPoint" />
          </mxGeometry>
        </mxCell>
        <mxCell id="XSy8z6XwA7m9_Gt11HAB-15" value="choose piece" style="edgeLabel;html=1;align=center;verticalAlign=middle;resizable=0;points=[];" vertex="1" connectable="0" parent="XSy8z6XwA7m9_Gt11HAB-14">
          <mxGeometry x="-0.0433" y="-2" relative="1" as="geometry">
            <mxPoint y="-13" as="offset" />
          </mxGeometry>
        </mxCell>
        <mxCell id="XSy8z6XwA7m9_Gt11HAB-16" value="&amp;nbsp; &amp;nbsp; &amp;nbsp; possible" style="rounded=0;whiteSpace=wrap;html=1;" vertex="1" parent="1">
          <mxGeometry x="730" y="205.25" width="180" height="40.5" as="geometry" />
        </mxCell>
        <mxCell id="XSy8z6XwA7m9_Gt11HAB-17" value="" style="endArrow=none;html=1;rounded=0;exitX=0.168;exitY=0.002;exitDx=0;exitDy=0;exitPerimeter=0;entryX=0.166;entryY=0.992;entryDx=0;entryDy=0;entryPerimeter=0;" edge="1" parent="1" source="XSy8z6XwA7m9_Gt11HAB-16" target="XSy8z6XwA7m9_Gt11HAB-16">
          <mxGeometry width="50" height="50" relative="1" as="geometry">
            <mxPoint x="722" y="185.75" as="sourcePoint" />
            <mxPoint x="722" y="255.75" as="targetPoint" />
          </mxGeometry>
        </mxCell>
        <mxCell id="XSy8z6XwA7m9_Gt11HAB-18" value="" style="endArrow=classic;html=1;rounded=0;exitX=1;exitY=0.5;exitDx=0;exitDy=0;entryX=0;entryY=0.5;entryDx=0;entryDy=0;" edge="1" parent="1" source="XSy8z6XwA7m9_Gt11HAB-11" target="XSy8z6XwA7m9_Gt11HAB-16">
          <mxGeometry width="50" height="50" relative="1" as="geometry">
            <mxPoint x="740" y="280.5" as="sourcePoint" />
            <mxPoint x="840" y="281.5" as="targetPoint" />
          </mxGeometry>
        </mxCell>
        <mxCell id="XSy8z6XwA7m9_Gt11HAB-19" value="possible moves" style="edgeLabel;html=1;align=center;verticalAlign=middle;resizable=0;points=[];" vertex="1" connectable="0" parent="XSy8z6XwA7m9_Gt11HAB-18">
          <mxGeometry x="-0.0433" y="-2" relative="1" as="geometry">
            <mxPoint y="-17" as="offset" />
          </mxGeometry>
        </mxCell>
        <mxCell id="XSy8z6XwA7m9_Gt11HAB-22" value="&amp;nbsp; &amp;nbsp; &amp;nbsp; board" style="rounded=0;whiteSpace=wrap;html=1;" vertex="1" parent="1">
          <mxGeometry x="493.46" y="340" width="153.09" height="40.5" as="geometry" />
        </mxCell>
        <mxCell id="XSy8z6XwA7m9_Gt11HAB-23" value="" style="endArrow=none;html=1;rounded=0;exitX=0.168;exitY=0.002;exitDx=0;exitDy=0;exitPerimeter=0;entryX=0.166;entryY=0.992;entryDx=0;entryDy=0;entryPerimeter=0;" edge="1" parent="1" source="XSy8z6XwA7m9_Gt11HAB-22" target="XSy8z6XwA7m9_Gt11HAB-22">
          <mxGeometry width="50" height="50" relative="1" as="geometry">
            <mxPoint x="478.90999999999997" y="330.25" as="sourcePoint" />
            <mxPoint x="478.90999999999997" y="400.25" as="targetPoint" />
          </mxGeometry>
        </mxCell>
        <mxCell id="XSy8z6XwA7m9_Gt11HAB-27" value="" style="endArrow=classic;html=1;rounded=0;exitX=0.5;exitY=0;exitDx=0;exitDy=0;entryX=0.5;entryY=1;entryDx=0;entryDy=0;" edge="1" parent="1" source="XSy8z6XwA7m9_Gt11HAB-22" target="XSy8z6XwA7m9_Gt11HAB-11">
          <mxGeometry width="50" height="50" relative="1" as="geometry">
            <mxPoint x="410" y="236" as="sourcePoint" />
            <mxPoint x="510" y="236" as="targetPoint" />
          </mxGeometry>
        </mxCell>
        <mxCell id="XSy8z6XwA7m9_Gt11HAB-28" value="board" style="edgeLabel;html=1;align=center;verticalAlign=middle;resizable=0;points=[];" vertex="1" connectable="0" parent="XSy8z6XwA7m9_Gt11HAB-27">
          <mxGeometry x="-0.0433" y="-2" relative="1" as="geometry">
            <mxPoint x="-2" y="3" as="offset" />
          </mxGeometry>
        </mxCell>
        <mxCell id="XSy8z6XwA7m9_Gt11HAB-29" value="&lt;div&gt;&lt;br&gt;&lt;/div&gt;display board" style="rounded=1;whiteSpace=wrap;html=1;" vertex="1" parent="1">
          <mxGeometry x="500.01" y="460" width="140" height="90" as="geometry" />
        </mxCell>
        <mxCell id="XSy8z6XwA7m9_Gt11HAB-30" value="" style="endArrow=none;html=1;rounded=0;entryX=0;entryY=0.25;entryDx=0;entryDy=0;exitX=1;exitY=0.25;exitDx=0;exitDy=0;" edge="1" parent="1" source="XSy8z6XwA7m9_Gt11HAB-29" target="XSy8z6XwA7m9_Gt11HAB-29">
          <mxGeometry width="50" height="50" relative="1" as="geometry">
            <mxPoint x="736.55" y="431" as="sourcePoint" />
            <mxPoint x="786.55" y="381" as="targetPoint" />
          </mxGeometry>
        </mxCell>
        <mxCell id="XSy8z6XwA7m9_Gt11HAB-31" value="&lt;font style=&quot;font-size: 14px;&quot;&gt;2&lt;/font&gt;" style="text;strokeColor=none;fillColor=none;html=1;fontSize=24;fontStyle=1;verticalAlign=middle;align=center;" vertex="1" parent="1">
          <mxGeometry x="535.01" y="465" width="70" height="10" as="geometry" />
        </mxCell>
        <mxCell id="XSy8z6XwA7m9_Gt11HAB-32" value="" style="endArrow=classic;html=1;rounded=0;exitX=0.5;exitY=1;exitDx=0;exitDy=0;entryX=0.5;entryY=0;entryDx=0;entryDy=0;" edge="1" parent="1" source="XSy8z6XwA7m9_Gt11HAB-22" target="XSy8z6XwA7m9_Gt11HAB-29">
          <mxGeometry width="50" height="50" relative="1" as="geometry">
            <mxPoint x="690" y="409" as="sourcePoint" />
            <mxPoint x="690" y="340" as="targetPoint" />
          </mxGeometry>
        </mxCell>
        <mxCell id="XSy8z6XwA7m9_Gt11HAB-33" value="board" style="edgeLabel;html=1;align=center;verticalAlign=middle;resizable=0;points=[];" vertex="1" connectable="0" parent="XSy8z6XwA7m9_Gt11HAB-32">
          <mxGeometry x="-0.0433" y="-2" relative="1" as="geometry">
            <mxPoint x="1" y="3" as="offset" />
          </mxGeometry>
        </mxCell>
        <mxCell id="XSy8z6XwA7m9_Gt11HAB-34" value="" style="endArrow=classic;html=1;rounded=0;exitX=0;exitY=0.5;exitDx=0;exitDy=0;entryX=0.5;entryY=1;entryDx=0;entryDy=0;" edge="1" parent="1" source="XSy8z6XwA7m9_Gt11HAB-29" target="XSy8z6XwA7m9_Gt11HAB-7">
          <mxGeometry width="50" height="50" relative="1" as="geometry">
            <mxPoint x="360" y="400" as="sourcePoint" />
            <mxPoint x="360" y="479" as="targetPoint" />
          </mxGeometry>
        </mxCell>
        <mxCell id="XSy8z6XwA7m9_Gt11HAB-35" value="board" style="edgeLabel;html=1;align=center;verticalAlign=middle;resizable=0;points=[];" vertex="1" connectable="0" parent="XSy8z6XwA7m9_Gt11HAB-34">
          <mxGeometry x="-0.0433" y="-2" relative="1" as="geometry">
            <mxPoint x="27" y="43" as="offset" />
          </mxGeometry>
        </mxCell>
        <mxCell id="XSy8z6XwA7m9_Gt11HAB-38" value="&lt;div&gt;&lt;br&gt;&lt;/div&gt;&lt;div&gt;display possible&amp;nbsp;&lt;/div&gt;&lt;div&gt;moves&lt;/div&gt;" style="rounded=1;whiteSpace=wrap;html=1;" vertex="1" parent="1">
          <mxGeometry x="500" y="41" width="140" height="90" as="geometry" />
        </mxCell>
        <mxCell id="XSy8z6XwA7m9_Gt11HAB-39" value="" style="endArrow=none;html=1;rounded=0;entryX=0;entryY=0.25;entryDx=0;entryDy=0;exitX=1;exitY=0.25;exitDx=0;exitDy=0;" edge="1" parent="1" source="XSy8z6XwA7m9_Gt11HAB-38" target="XSy8z6XwA7m9_Gt11HAB-38">
          <mxGeometry width="50" height="50" relative="1" as="geometry">
            <mxPoint x="730" y="31" as="sourcePoint" />
            <mxPoint x="780" y="-19" as="targetPoint" />
          </mxGeometry>
        </mxCell>
        <mxCell id="XSy8z6XwA7m9_Gt11HAB-40" value="&lt;font style=&quot;font-size: 14px;&quot;&gt;3&lt;/font&gt;" style="text;strokeColor=none;fillColor=none;html=1;fontSize=24;fontStyle=1;verticalAlign=middle;align=center;" vertex="1" parent="1">
          <mxGeometry x="535" y="40" width="70" height="20" as="geometry" />
        </mxCell>
        <mxCell id="XSy8z6XwA7m9_Gt11HAB-44" value="" style="endArrow=classic;html=1;rounded=0;exitX=0.5;exitY=0;exitDx=0;exitDy=0;entryX=1;entryY=0.5;entryDx=0;entryDy=0;" edge="1" parent="1" source="XSy8z6XwA7m9_Gt11HAB-16" target="XSy8z6XwA7m9_Gt11HAB-38">
          <mxGeometry width="50" height="50" relative="1" as="geometry">
            <mxPoint x="710" y="120" as="sourcePoint" />
            <mxPoint x="800" y="120" as="targetPoint" />
          </mxGeometry>
        </mxCell>
        <mxCell id="XSy8z6XwA7m9_Gt11HAB-45" value="possible moves" style="edgeLabel;html=1;align=center;verticalAlign=middle;resizable=0;points=[];" vertex="1" connectable="0" parent="XSy8z6XwA7m9_Gt11HAB-44">
          <mxGeometry x="-0.0433" y="-2" relative="1" as="geometry">
            <mxPoint x="-15" y="-7" as="offset" />
          </mxGeometry>
        </mxCell>
        <mxCell id="XSy8z6XwA7m9_Gt11HAB-46" value="" style="endArrow=classic;html=1;rounded=0;exitX=0;exitY=0.5;exitDx=0;exitDy=0;entryX=0.5;entryY=0;entryDx=0;entryDy=0;" edge="1" parent="1" source="XSy8z6XwA7m9_Gt11HAB-38" target="XSy8z6XwA7m9_Gt11HAB-7">
          <mxGeometry width="50" height="50" relative="1" as="geometry">
            <mxPoint x="440" y="145.5" as="sourcePoint" />
            <mxPoint x="260" y="26.5" as="targetPoint" />
          </mxGeometry>
        </mxCell>
        <mxCell id="XSy8z6XwA7m9_Gt11HAB-47" value="possible moves" style="edgeLabel;html=1;align=center;verticalAlign=middle;resizable=0;points=[];" vertex="1" connectable="0" parent="XSy8z6XwA7m9_Gt11HAB-46">
          <mxGeometry x="-0.0433" y="-2" relative="1" as="geometry">
            <mxPoint y="6" as="offset" />
          </mxGeometry>
        </mxCell>
        <mxCell id="XSy8z6XwA7m9_Gt11HAB-50" value="update board" style="rounded=1;whiteSpace=wrap;html=1;" vertex="1" parent="1">
          <mxGeometry x="265" y="460" width="140" height="90" as="geometry" />
        </mxCell>
        <mxCell id="XSy8z6XwA7m9_Gt11HAB-51" value="" style="endArrow=none;html=1;rounded=0;entryX=0;entryY=0.25;entryDx=0;entryDy=0;exitX=1;exitY=0.25;exitDx=0;exitDy=0;" edge="1" parent="1" source="XSy8z6XwA7m9_Gt11HAB-50" target="XSy8z6XwA7m9_Gt11HAB-50">
          <mxGeometry width="50" height="50" relative="1" as="geometry">
            <mxPoint x="980" y="305.75" as="sourcePoint" />
            <mxPoint x="1030" y="255.75" as="targetPoint" />
          </mxGeometry>
        </mxCell>
        <mxCell id="XSy8z6XwA7m9_Gt11HAB-52" value="&lt;font style=&quot;font-size: 14px;&quot;&gt;4&lt;/font&gt;" style="text;strokeColor=none;fillColor=none;html=1;fontSize=24;fontStyle=1;verticalAlign=middle;align=center;" vertex="1" parent="1">
          <mxGeometry x="300" y="460" width="70" height="20" as="geometry" />
        </mxCell>
        <mxCell id="XSy8z6XwA7m9_Gt11HAB-53" value="" style="endArrow=classic;html=1;rounded=0;exitX=0.5;exitY=1;exitDx=0;exitDy=0;entryX=0.5;entryY=0;entryDx=0;entryDy=0;" edge="1" parent="1" source="XSy8z6XwA7m9_Gt11HAB-7" target="XSy8z6XwA7m9_Gt11HAB-50">
          <mxGeometry width="50" height="50" relative="1" as="geometry">
            <mxPoint x="365" y="334.75" as="sourcePoint" />
            <mxPoint x="200" y="439.75" as="targetPoint" />
          </mxGeometry>
        </mxCell>
        <mxCell id="XSy8z6XwA7m9_Gt11HAB-54" value="move choice" style="edgeLabel;html=1;align=center;verticalAlign=middle;resizable=0;points=[];" vertex="1" connectable="0" parent="XSy8z6XwA7m9_Gt11HAB-53">
          <mxGeometry x="-0.0433" y="-2" relative="1" as="geometry">
            <mxPoint y="6" as="offset" />
          </mxGeometry>
        </mxCell>
      </root>
    </mxGraphModel>
  </diagram>
</mxfile>
